<?xml version="1.0" encoding="UTF-8" standalone="no"?>
<!-- Created with Inkscape (http://www.inkscape.org/) -->

<svg
   width="24.65892mm"
   height="33.136505mm"
   viewBox="0 0 24.65892 33.136505"
   version="1.1"
   id="svg5"
   xml:space="preserve"
   xmlns:inkscape="http://www.inkscape.org/namespaces/inkscape"
   xmlns:sodipodi="http://sodipodi.sourceforge.net/DTD/sodipodi-0.dtd"
   xmlns="http://www.w3.org/2000/svg"
   xmlns:svg="http://www.w3.org/2000/svg">
   <sodipodi:namedview
     id="namedview7"
     pagecolor="#ffffff"
     bordercolor="#000000"
     borderopacity="0.25"
     inkscape:showpageshadow="2"
     inkscape:pageopacity="0.0"
     inkscape:pagecheckerboard="0"
     inkscape:deskcolor="#d1d1d1"
     inkscape:document-units="mm"
     showgrid="false" />
   <defs id="defs2" />
   <g inkscape:label="Layer 1" inkscape:groupmode="layer" id="layer1" transform="translate(-80.341082,-182.42776)">
      <path style="fill:white;fill-opacity:1;stroke-width:0.0608839" d="m 91.409699,215.51078 c -5.10431,-0.46298 -8.92349,-3.15164 -10.49991,-7.39181 -0.20307,-0.54619 -0.20307,-0.54619 0.21617,-0.54619 0.72933,0 1.16179,0.24057 2.94723,1.63945 2.97561,2.33136 4.87094,3.166 7.42784,3.27094 2.70155,0.11087 4.381,-0.65419 6.9712,-3.17571 2.266461,-2.20635 2.790601,-2.7073 3.287741,-3.14224 0.5433,-0.47533 1.17467,-0.94506 1.34142,-0.99798 0.30947,-0.0982 -0.14029,-0.69409 -0.62283,-0.82516 -0.77336,-0.21005 -2.37528,0.2375 -3.497041,0.97703 -0.19088,0.12583 -0.19088,0.12583 -0.0495,-0.26373 1.108791,-3.05466 -0.8074,-7.66817 -6.47117,-15.58034 -0.61386,-0.85755 -0.58111,-0.84815 -0.53046,-0.15221 0.19928,2.73816 -0.89389,5.78171 -2.81551,7.8388 -2.27547,2.43588 -3.1947,4.12214 -3.20822,5.88525 -0.003,0.37382 -0.0193,0.67164 -0.0365,0.66182 -0.0172,-0.01 -1.25999,-0.0531 -2.76169,-0.0962 -2.08211,-0.0598 -2.73737,-0.0966 -2.75983,-0.15514 -0.0399,-0.104 0.0842,-0.91985 0.23074,-1.51631 0.40078,-1.63176 1.23794,-3.29925 2.47546,-4.93069 0.90006,-1.18657 1.15734,-1.47507 4.10156,-4.59921 3.63351,-3.85555 5.46856,-7.12766 5.4708,-9.75508 10e-5,-0.12557 0.0276,-0.22831 0.0611,-0.22831 0.0335,0 0.061,0.10274 0.0611,0.22831 0.001,1.37304 0.8944,3.81386 2.05289,5.60966 0.91987,1.42592 1.73118,2.39335 4.4747,5.3358 3.155801,3.38463 4.400511,5.17226 5.189561,7.45315 2.56459,7.41339 -4.497631,15.23249 -13.056791,14.45613 z m 0.39575,-7.45337 c -0.9523,-0.10655 -2.5875,-0.56532 -2.58759,-0.72597 -1e-5,-0.018 0.18493,-0.0291 0.41097,-0.0248 3.51904,0.0673 4.88166,-0.18846 5.00021,-0.93836 0.12093,-0.765 -0.46124,-1.12417 -2.64094,-1.6293 -0.067,-0.0155 -0.75839,-0.0972 -1.53647,-0.18158 -2.7351,-0.29649 -3.9283,-0.55798 -4.02113,-0.88121 -0.39743,-1.38375 0.6811,-3.65564 2.79522,-5.88805 1.94923,-2.05831 3.21901,-4.99236 3.21901,-7.43814 0,-0.1552 2.46351,3.62132 3.3909,5.19819 2.97668,5.06135 3.57504,7.51366 2.41116,9.88181 -0.9188,1.86949 -3.56567,2.94913 -6.44134,2.62739 z m 5.29617,-3.49202 c 0.7911,-1.03719 0.54476,-2.72891 -0.5753,-3.95071 -0.39738,-0.43347 -0.43796,-0.41235 -0.16864,0.0878 0.64372,1.19535 0.82737,2.6274 0.50043,3.90225 -0.0594,0.23168 0.0503,0.21397 0.24351,-0.0393 z"
       id="path6455"
       inkscape:export-filename="reqblood2.svg"
       inkscape:export-xdpi="510.12643"
       inkscape:export-ydpi="510.12643" /></g><style
     type="text/css"
     id="style81">.st0{fill-rule:evenodd;clip-rule:evenodd;}</style></svg>
