<?xml version="1.0" encoding="UTF-8" standalone="no"?>
<!-- Created with Inkscape (http://www.inkscape.org/) -->

<svg
   width="50.98658mm"
   height="46.569305mm"
   viewBox="0 0 50.98658 46.569305"
   version="1.1"
   id="svg5"
   xml:space="preserve"
   xmlns="http://www.w3.org/2000/svg"
   xmlns:svg="http://www.w3.org/2000/svg"><defs
     id="defs2"><clipPath
       clipPathUnits="userSpaceOnUse"
       id="clipPath3839"><rect
         style="display:none;fill:#ff0000;fill-opacity:1;stroke-width:0;stroke-dasharray:none"
         id="rect3841"
         width="150.05675"
         height="123.53944"
         x="-115.75893"
         y="-207.89427" /><path
         id="lpe_path-effect3843"
         style="fill:#ff0000;fill-opacity:1;stroke-width:0;stroke-dasharray:none"
         class="powerclip"
         d="m -22.775796,-92.117533 h 99.804967 v 48.932759 H -22.775796 Z M -115.75893,-207.89427 V -84.354836 H 34.297821 V -207.89427 Z" /></clipPath><clipPath
       clipPathUnits="userSpaceOnUse"
       id="clipath_lpe_path-effect6230"><rect
         style="display:none;fill:#ff0000;fill-opacity:1;stroke-width:0;stroke-dasharray:none"
         id="rect6232"
         width="150.05675"
         height="123.53944"
         x="-115.75893"
         y="-207.89427" /><path
         id="lpe_path-effect6230"
         style="fill:#ff0000;fill-opacity:1;stroke-width:0;stroke-dasharray:none"
         class="powerclip"
         d="m -22.775796,-92.117533 h 99.804967 v 48.932759 H -22.775796 Z M -115.75893,-207.89427 V -84.354836 H 34.297821 V -207.89427 Z" /></clipPath></defs><g
     id="layer1"
     transform="translate(-92.514597,-49.796248)"><g
       id="g6218"
       transform="matrix(0.48582271,0,0,0.48582271,50.481554,6.5584924)"
       style="fill:#ffffff"><g
         style="fill:#ffffff;stroke-width:0"
         id="g245"
         transform="matrix(0.110468,0,0,0.110468,112.82162,111.58557)"
         class="UnoptimicedTransforms"><g
           id="g236"
           style="fill:#ffffff">
	<g
   id="g3357"
   style="fill:#ffffff"><path
     d="M 433.601,67.001 C 389.44128,20.755845 310.58377,16.006203 261.0495,56.3454 251.93487,63.387834 244.21337,71.97439 236.001,80.001 213.33786,54.886293 184.15907,34.138173 149.78044,29.928124 88.876098,19.518437 24.804274,59.080652 6.487908,118.00865 -10.259923,166.82758 5.8515434,223.82843 44.618624,257.61862 105.90749,318.65336 166.71335,380.22164 228.30412,440.92288 c 13.49778,8.04937 22.27132,-8.38801 31.13505,-15.80709 60.11976,-60.23792 120.9432,-119.80312 180.61397,-180.4703 C 484.4341,195.12885 481.66548,113.13963 433.601,67.001 Z m -19.2,165.7 c -59.56667,59.33333 -119.13333,118.66667 -178.7,178 C 174.57372,349.31258 112.9103,288.43556 52.122179,226.72362 16.238036,187.12595 19.415809,119.93369 59.148018,84.098427 96.958047,46.250702 164.1567,46.376603 201.94461,84.189342 c 9.82376,8.908152 18.08706,19.807198 28.93139,27.392908 13.99278,4.39444 21.24218,-11.683598 30.61318,-18.969426 C 289.99091,59.002855 340.06705,45.990003 380.801,63.6385 c 47.44479,18.479265 74.71011,74.80424 60.22446,123.53458 -4.68843,17.16467 -14.02825,32.97907 -26.62446,45.52792 z"
     id="path234"
     style="fill:#ffffff" /><path
     style="color:#000000;fill:#ffffff;stroke-linecap:round;stroke-linejoin:round;-inkscape-stroke:none"
     d="m 100.88477,182.92773 c -1.425456,-0.0545 -2.869101,0.40892 -4.025395,1.40039 v -0.002 l -0.390625,0.33594 a 0.78490846,0.78490846 0 0 0 -0.002,0 c -1.812144,1.5538 -4.469117,1.5538 -6.28125,0 l -0.390625,-0.33594 v 0.002 c -2.313231,-1.98228 -5.781831,-1.84984 -7.935547,0.30469 -1.544668,1.54285 -3.984564,1.67817 -5.689453,0.31446 l -1.894531,-1.51368 a 0.78482997,0.78482997 0 0 0 -1.101563,0.12305 0.78482997,0.78482997 0 0 0 0.123047,1.10156 l 1.892578,1.51367 c 2.319049,1.85498 5.678189,1.6709 7.779297,-0.42773 a 0.78490846,0.78490846 0 0 0 0,-0.002 c 1.584106,-1.58471 4.103254,-1.68067 5.804687,-0.22266 l 0.390625,0.33399 c 2.390782,2.04995 5.933004,2.0492 8.324219,0 l 0.390625,-0.33399 a 0.78490846,0.78490846 0 0 0 0.002,0 c 1.700959,-1.4585 4.218141,-1.36345 5.802731,0.2207 2.10045,2.09939 5.45963,2.28595 7.7793,0.43164 l 1.89453,-1.51367 a 0.78482997,0.78482997 0 0 0 0.12305,-1.10156 0.78482997,0.78482997 0 0 0 -1.10352,-0.12305 l -1.89257,1.51368 c -1.70535,1.36322 -4.14722,1.227 -5.69141,-0.31641 -1.07719,-1.07689 -2.48275,-1.64861 -3.9082,-1.70313 z"
     id="path213"
     transform="matrix(10.911939,0,0,10.911939,-784.66979,-1829.4563)" /></g>
</g></g><path
         style="fill:#ff0000;fill-opacity:1;stroke-width:0;stroke-dasharray:none"
         d="m 485.98525,554.0625 c -29.43764,-29.4803 -39.10482,-39.3076 -40.20568,-40.87161 -1.466,-2.08278 -3.65457,-5.75638 -3.65457,-6.13435 0,-0.11306 0.51432,0.1483 1.14295,0.58081 4.59812,3.16359 11.57198,4.88141 17.24775,4.24853 6.57514,-0.73317 11.14744,-2.84631 16.24085,-7.50588 4.20869,-3.85022 7.92024,-5.49045 12.89597,-5.69906 5.4911,-0.23022 9.60881,1.31751 14.63295,5.50014 3.13994,2.61401 5.83925,4.30852 8.66726,5.4409 7.13274,2.85609 15.44426,2.78726 22.42227,-0.18569 3.45661,-1.47267 4.77444,-2.33176 9.64949,-6.29048 2.29373,-1.86259 5.66382,-3.54097 8.27486,-4.12105 2.21621,-0.49237 5.89374,-0.50911 8.12149,-0.037 3.60309,0.76363 6.41737,2.32644 9.95416,5.52766 2.6151,2.36699 4.41076,3.60272 7.07357,4.86787 9.48729,4.5076 20.63198,3.11865 28.74894,-3.58295 0.65863,-0.54378 1.25627,-0.92993 1.3281,-0.85811 0.18393,0.18393 -1.99335,4.46488 -3.33524,6.55773 -0.61714,0.9625 -1.94378,2.7625 -2.94809,4 -1.44608,1.78183 -77.07544,77.375 -77.41205,77.375 -0.0488,0 -17.52901,-17.46563 -38.84498,-38.8125 z"
         id="path3745"
         transform="scale(0.26458333)" /></g><g
       id="g85"
       transform="matrix(-0.32955786,0,0,0.32627123,116.25238,112.08686)"
       style="fill:#ffffff;fill-opacity:1"
       clip-path="url(#clipPath3839)">

<path
   class="st0"
   d="m 50.229171,-57.547533 v -26.98 h -12.14 c -5.15,0.92 -10.29,3.71 -15.44,6.95 h -9.43 c -4.2699998,0.26 -6.4999998,4.58 -2.36,7.42 3.31,2.42 7.67,2.29 12.14,1.89 3.08,-0.15 3.22,3.99 0,4.01 -1.12,0.09 -2.33,-0.18 -3.39,-0.18 -5.58,-0.01 -10.1799998,-1.07 -12.9899998,-5.48 l -1.41,-3.3 -14.02,-6.95 c -7.0200002,-2.31 -12.0000002,5.03 -6.8300002,10.13 10.1600002,7.39 20.5700002,13.47 31.23,18.38 7.74,4.71 15.48,4.55 23.21,0 z m 21.8,-29.57 h -18.15 v 32.29 h 18.15 z"
   id="path83"
   style="fill:#ffffff;fill-opacity:1" />

<path
   class="st0"
   d="m 50.229171,-57.547533 v -26.98 h -12.14 c -5.15,0.92 -10.29,3.71 -15.44,6.95 h -9.43 c -4.2699998,0.26 -6.4999998,4.58 -2.36,7.42 3.31,2.42 7.67,2.29 12.14,1.89 3.08,-0.15 3.22,3.99 0,4.01 -1.12,0.09 -2.33,-0.18 -3.39,-0.18 -5.58,-0.01 -10.1799998,-1.07 -12.9899998,-5.48 l -1.41,-3.3 -14.02,-6.95 c -7.0200002,-2.31 -12.0000002,5.03 -6.8300002,10.13 10.1600002,7.39 20.5700002,13.47 31.23,18.38 7.74,4.71 15.48,4.55 23.21,0 z m 21.8,-29.57 h -18.15 v 32.29 h 18.15 z"
   id="path3847"
   style="fill:#ffffff;fill-opacity:1" /></g><g
       id="g6226"
       transform="matrix(0.32955786,0,0,-0.32627123,119.76339,34.074944)"
       style="fill:#ffffff;fill-opacity:1;stroke-width:1.00027;stroke-dasharray:none"
       clip-path="url(#clipath_lpe_path-effect6230)">

<path
   class="st0"
   d="m 50.229171,-57.547533 v -26.98 h -12.14 c -5.15,0.92 -10.29,3.71 -15.44,6.95 h -9.43 c -4.2699998,0.26 -6.4999998,4.58 -2.36,7.42 3.31,2.42 7.67,2.29 12.14,1.89 3.08,-0.15 3.22,3.99 0,4.01 -1.12,0.09 -2.33,-0.18 -3.39,-0.18 -5.58,-0.01 -10.1799998,-1.07 -12.9899998,-5.48 l -1.41,-3.3 -14.02,-6.95 c -7.0200002,-2.31 -12.0000002,5.03 -6.8300002,10.13 10.1600002,7.39 20.5700002,13.47 31.23,18.38 7.74,4.71 15.48,4.55 23.21,0 z m 21.8,-29.57 h -18.15 v 32.29 h 18.15 z"
   id="path6222"
   style="fill:#ffffff;fill-opacity:1;stroke-width:1.00027;stroke-dasharray:none" />

<path
   class="st0"
   d="m 50.229171,-57.547533 v -26.98 h -12.14 c -5.15,0.92 -10.29,3.71 -15.44,6.95 h -9.43 c -4.2699998,0.26 -6.4999998,4.58 -2.36,7.42 3.31,2.42 7.67,2.29 12.14,1.89 3.08,-0.15 3.22,3.99 0,4.01 -1.12,0.09 -2.33,-0.18 -3.39,-0.18 -5.58,-0.01 -10.1799998,-1.07 -12.9899998,-5.48 l -1.41,-3.3 -14.02,-6.95 c -7.0200002,-2.31 -12.0000002,5.03 -6.8300002,10.13 10.1600002,7.39 20.5700002,13.47 31.23,18.38 7.74,4.71 15.48,4.55 23.21,0 z m 21.8,-29.57 h -18.15 v 32.29 h 18.15 z"
   id="path6224"
   style="fill:#ffffff;fill-opacity:1;stroke-width:1.00027;stroke-dasharray:none" /></g></g><style
     type="text/css"
     id="style81">.st0{fill-rule:evenodd;clip-rule:evenodd;}</style></svg>
